<?xml version="1.0" encoding="UTF-8" standalone="no"?>
<!-- Created with Inkscape (http://www.inkscape.org/) -->

<svg
   width="75mm"
   height="30mm"
   viewBox="0 0 90 45"
   version="1.1"
   id="svg1"
   inkscape:version="1.4 (86a8ad7, 2024-10-11)"
   sodipodi:docname="logo.svg"
   xml:space="preserve"
   xmlns:inkscape="http://www.inkscape.org/namespaces/inkscape"
   xmlns:sodipodi="http://sodipodi.sourceforge.net/DTD/sodipodi-0.dtd"
   xmlns="http://www.w3.org/2000/svg"
   xmlns:svg="http://www.w3.org/2000/svg"><sodipodi:namedview
     id="namedview1"
     pagecolor="#ffffff"
     bordercolor="#000000"
     borderopacity="0.25"
     inkscape:showpageshadow="2"
     inkscape:pageopacity="0.0"
     inkscape:pagecheckerboard="0"
     inkscape:deskcolor="#d1d1d1"
     inkscape:document-units="mm"
     inkscape:zoom="2.768771"
     inkscape:cx="131.1051"
     inkscape:cy="44.243457"
     inkscape:window-width="2400"
     inkscape:window-height="1261"
     inkscape:window-x="-9"
     inkscape:window-y="-6"
     inkscape:window-maximized="1"
     inkscape:current-layer="layer1"
     showguides="true"><sodipodi:guide
       position="9.0017375,23.069015"
       orientation="1,0"
       id="guide1"
       inkscape:locked="false" /></sodipodi:namedview><defs
     id="defs1" /><g
     inkscape:label="Layer 1"
     inkscape:groupmode="layer"
     id="layer1"><path
       id="rect34"
       style="fill:#2b589e;fill-opacity:1;stroke:#2b589e;stroke-width:1.00032;stroke-linejoin:miter;stroke-dasharray:none;stroke-opacity:1"
       d="M 18.72627,33.684418 25.1738,27.870959 V 0.761276 H 0.23178 v 32.923142 z" /><path
       style="fill:none;fill-opacity:0.996078;stroke:#a0d2ff;stroke-width:1;stroke-linejoin:miter;stroke-dasharray:none;stroke-opacity:0.996078"
       d="M 2.00889,13.170161 H 8.38732 V 7.508421"
       id="path37" /><path
       style="fill:none;fill-opacity:0.996078;stroke:#a0d2ff;stroke-width:1;stroke-linejoin:miter;stroke-dasharray:none;stroke-opacity:0.996078"
       d="m 15.59217,12.846681 h 6.30695"
       id="path38" /><path
       style="fill:none;fill-opacity:0.996078;stroke:#a0d2ff;stroke-width:1;stroke-linejoin:miter;stroke-dasharray:none;stroke-opacity:0.996078"
       d="M 7.08734,16.021671 H 21.89912"
       id="path39"
       sodipodi:nodetypes="cc" /><path
       style="fill:none;fill-opacity:0.996078;stroke:#a0d2ff;stroke-width:1;stroke-linejoin:miter;stroke-dasharray:none;stroke-opacity:0.996078"
       d="M 7.08734,19.196691 H 21.89912"
       id="path42"
       sodipodi:nodetypes="cc" /><path
       style="fill:none;fill-opacity:0.996078;stroke:#a0d2ff;stroke-width:1;stroke-linejoin:miter;stroke-dasharray:none;stroke-opacity:0.996078"
       d="M 7.08734,22.371711 H 21.89912"
       id="path43"
       sodipodi:nodetypes="cc" /><path
       style="fill:none;fill-opacity:0.996078;stroke:#a0d2ff;stroke-width:1;stroke-linejoin:miter;stroke-dasharray:none;stroke-opacity:0.996078"
       d="M 7.08734,25.546731 H 21.89912"
       id="path44"
       sodipodi:nodetypes="cc" /><path
       id="path45"
       style="fill:#ffffff;fill-opacity:0.996078;stroke:#2b589e;stroke-width:1;stroke-linejoin:miter;stroke-dasharray:none;stroke-opacity:1"
       d="m 4.59789,4.199471 -6.28954,5.9557 v 27.77299 H 22.63917 V 4.199471 Z" /><path
       style="fill:none;fill-opacity:0.996078;stroke:#2b589e;stroke-width:1;stroke-linejoin:miter;stroke-dasharray:none;stroke-opacity:1"
       d="M -1.6953,9.995141 H 4.68313 V 4.333401"
       id="path46" /><path
       style="fill:none;fill-opacity:0.996078;stroke:#2b589e;stroke-width:1;stroke-linejoin:miter;stroke-dasharray:none;stroke-opacity:1"
       d="m 11.88798,9.671661 h 6.30695"
       id="path47" /><path
       style="fill:none;fill-opacity:0.996078;stroke:#2b589e;stroke-width:1;stroke-linejoin:miter;stroke-dasharray:none;stroke-opacity:1"
       d="M 3.38315,12.846651 H 18.19493"
       id="path48"
       sodipodi:nodetypes="cc" /><path
       style="fill:none;fill-opacity:0.996078;stroke:#2b589e;stroke-width:1;stroke-linejoin:miter;stroke-dasharray:none;stroke-opacity:1"
       d="M 3.38315,16.021671 H 18.19493"
       id="path49"
       sodipodi:nodetypes="cc" /><path
       style="fill:none;fill-opacity:0.996078;stroke:#2b589e;stroke-width:1;stroke-linejoin:miter;stroke-dasharray:none;stroke-opacity:1"
       d="M 3.38315,19.196691 H 18.19493"
       id="path50"
       sodipodi:nodetypes="cc" /><path
       style="fill:none;fill-opacity:0.996078;stroke:#2b589e;stroke-width:1;stroke-linejoin:miter;stroke-dasharray:none;stroke-opacity:1"
       d="M 3.38315,22.371711 H 18.19493"
       id="path51"
       sodipodi:nodetypes="cc" /><path
       style="fill:#5fd35f;fill-opacity:0.996078;stroke:#5fd35f;stroke-width:0.750001;stroke-linejoin:round;stroke-dasharray:none;stroke-opacity:1"
       d="m 18.96597,27.023398 h 5.39914 l 2.53233,2.10232 -0.1433,5.16023 -2.19791,3.15348 -2.8668,1.72008 -3.48793,-1.81564 -2.10232,-3.29682 -0.0478,-4.87355 z"
       id="path64"
       sodipodi:nodetypes="cccccccccc" /><path
       style="fill:none;fill-opacity:0.996078;stroke:#ffffff;stroke-width:1;stroke-linejoin:round;stroke-dasharray:none;stroke-opacity:1"
       d="m 19.1093,31.849169 1.81564,2.29344 3.29682,-3.91795"
       id="path65" /><g
       id="g3"
       transform="matrix(1.0521897,0,0,1.0521897,35.148125,70.34707)"><path
         style="fill:#ffff00;stroke:none;stroke-width:0.240551;stroke-linejoin:round"
         id="path1"
         sodipodi:type="arc"
         sodipodi:cx="29.596102"
         sodipodi:cy="-47.029427"
         sodipodi:rx="29.778542"
         sodipodi:ry="17.142763"
         sodipodi:start="0"
         sodipodi:end="6.2819336"
         sodipodi:arc-type="chord"
         d="M 59.374643,-47.029427 A 29.778542,17.142763 0 0 1 29.60542,-29.886664 29.778542,17.142763 0 0 1 -0.18243397,-47.018698 29.778542,17.142763 0 0 1 29.568146,-64.172182 29.778542,17.142763 0 0 1 59.37462,-47.050884 Z"
         sodipodi:open="true" /><path
         style="fill:#ff0000;stroke:none;stroke-width:0.207081;stroke-linejoin:round"
         id="path2"
         sodipodi:type="arc"
         sodipodi:cx="29.596102"
         sodipodi:cy="-47.029427"
         sodipodi:rx="26.533337"
         sodipodi:ry="14.258032"
         sodipodi:start="0"
         sodipodi:end="6.2819336"
         sodipodi:arc-type="chord"
         d="M 56.129438,-47.029427 A 26.533337,14.258032 0 0 1 29.604405,-32.771395 26.533337,14.258032 0 0 1 3.0627703,-47.020503 26.533337,14.258032 0 0 1 29.571193,-61.287452 26.533337,14.258032 0 0 1 56.129418,-47.047273 Z"
         sodipodi:open="true" /><path
         style="fill:#ffff00;stroke:none;stroke-width:0.2;stroke-linejoin:round"
         d="m 10.895142,-51.6321 0.0083,2.854048 2.014835,0.02799 0.06587,8.390397 c 0.02585,3.292271 3.378714,4.084288 8.283246,2.963932 l -0.367542,-3.00691 c -1.828266,0.670657 -3.175837,0.723109 -3.175837,-1.013565 v -7.196313 h 6.621959 l 0.02389,8.407789 c 0.0054,1.888339 0.707891,3.998538 8.193483,2.818895 l -0.277778,-3.084377 c -1.6166,0.575622 -3.189957,0.711212 -3.313382,-0.667512 l 0.08567,-7.598344 5.610087,0.01979 -1.283146,-2.904849 -4.312952,-0.01979 0.02969,-5.284535 -4.755559,2.46804 0.05188,2.724329 -6.856761,0.05188 0.04368,-5.172579 -4.668196,2.249635 0.0099,2.950932 z"
         id="path5"
         sodipodi:nodetypes="cccsccsccsccccccccccccccc" /><path
         style="fill:#ffff00;stroke:none;stroke-width:0.264583"
         d="m 35.289852,-51.636325 0.0169,3.1505 -0.473,-0.01689 5.439466,11.216784 4.240082,0.06757 7.06117,-14.493984 -4.67929,10e-7 -4.44279,10.034296 -4.375229,-9.975172 z"
         id="path3"
         sodipodi:nodetypes="cccccccccc" /></g><g
       id="g1"
       transform="translate(-7.8014957)"><rect
         style="fill:#2b589e;fill-opacity:1;stroke:#2b589e;stroke-width:1.09256;stroke-linejoin:miter;stroke-dasharray:none;stroke-opacity:1"
         id="rect51-5"
         width="17.777637"
         height="24.688648"
         x="2.0562325"
         y="14.898804"
         ry="4.5868726"
         rx="3.9776788" /><rect
         style="fill:#ffffff;fill-opacity:0.996078;stroke:#2b589e;stroke-width:1.09256;stroke-linejoin:miter;stroke-dasharray:none;stroke-opacity:1"
         id="rect52-2"
         width="12.858506"
         height="6.7517238"
         x="4.4482918"
         y="18.558809"
         ry="0" /><rect
         style="fill:#ffffff;fill-opacity:0.996078;stroke:#2b589e;stroke-width:0.3;stroke-linejoin:round;stroke-dasharray:none;stroke-opacity:1"
         id="rect56-7"
         width="3.070735"
         height="3.070735"
         x="4.5051079"
         y="28.655161" /><rect
         style="fill:#ffffff;fill-opacity:0.996078;stroke:#2b589e;stroke-width:0.3;stroke-linejoin:round;stroke-dasharray:none;stroke-opacity:1"
         id="rect57-6"
         width="3.070735"
         height="3.070735"
         x="9.2662563"
         y="28.655161" /><rect
         style="fill:#ff6600;fill-opacity:1;stroke:#ff6600;stroke-width:1.09256;stroke-linejoin:miter;stroke-dasharray:none;stroke-opacity:1"
         id="rect58-1"
         width="3.07073"
         height="7.9128151"
         x="14.027403"
         y="28.655161"
         ry="0.78168154" /><rect
         style="fill:#ffffff;fill-opacity:0.996078;stroke:#2b589e;stroke-width:0.3;stroke-linejoin:round;stroke-dasharray:none;stroke-opacity:1"
         id="rect59-4"
         width="3.070735"
         height="3.070735"
         x="4.5051079"
         y="33.416306" /><rect
         style="fill:#ffffff;fill-opacity:0.996078;stroke:#2b589e;stroke-width:0.3;stroke-linejoin:round;stroke-dasharray:none;stroke-opacity:1"
         id="rect60-2"
         width="3.070735"
         height="3.070735"
         x="9.2662563"
         y="33.416306" /></g></g></svg>
